<svg class="earbud-plug" version="1.1" xmlns="http://www.w3.org/2000/svg" xmlns:xlink="http://www.w3.org/1999/xlink" x="0px" y="0px" width="556.2px" height="393.1px" viewBox="0 0 556.2 393.1" style="enable-background:new 0 0 556.2 393.1;" xml:space="preserve">
<path class="earbud-plug0" d="M538,220.7c0-280-534-297-534,0"/>
<path class="earbud-plug1" d="M530.4,220.7c0,0,3.6-2,8.7-2c5.2,0,8.7,2,8.7,2v34.9h-17.5V220.7z"/>
<rect x="530.9" y="322.7" class="earbud-plug2" width="16.4" height="50.7"/>
<polygon class="earbud-plug2" points="537.1,393.1 541.2,393.1 545.4,389.3 543.9,372.5 534.4,372.5 532.9,389.3 "/>
<path class="earbud-plug1" d="M523.5,252.9c0,0,5.4-3.2,15.7-3.2c10.3,0,15.7,3.2,15.7,3.2v73.4c0,0-7.2,3.9-15.7,3.9c-8.5,0-15.7-3.9-15.7-3.9V252.9z"/>
</svg>
