<?xml version="1.0" encoding="utf-8"?>
<!-- Generator: Adobe Illustrator 19.0.1, SVG Export Plug-In . SVG Version: 6.00 Build 0)  -->
<svg class="earbud" version="1.1" xmlns="http://www.w3.org/2000/svg" xmlns:xlink="http://www.w3.org/1999/xlink" x="0px" y="0px" width="450.9px" height="669.1px" viewBox="0 0 450.9 669.1" style="enable-background:new 0 0 450.9 669.1;" xml:space="preserve">
<path class="earbud0" d="M113,311.2c0,0,0-143.3,0,136.7s333.6,297,333.6,0"/>
<path class="earbud0" d="M76,238.9c0,0,0-71,0,209s333.6,297,333.6,0"/>
<path class="earbud1" d="M119.2,314.4c0,0-2.9,1.5-6.1,1.5s-6.1-1.5-6.1-1.5l-1-28.2h14.2L119.2,314.4z"/>
<path class="earbud1" d="M69.9,244.4c0,0,2.9,1.5,6.1,1.5s6.1-1.5,6.1-1.5l1-28.2H68.9L69.9,244.4z"/>
<path class="earbud2" d="M100,148.3c0,2.1,1,137.9,1,137.9s3.2,2.5,12,2.5s12.3-2.5,12.3-2.5l1-132.3h11.4v-74C116.9,79.9,100,118.3,100,148.3z"/>
<g>
	<ellipse class="earbud2" cx="151.3" cy="118.2" rx="37.7" ry="48.2"/>
	<path class="earbud3" d="M146.7,138.9h-1c-5.5,0-10-4.5-10-10v-20.8c0-5.5,4.5-10,10-10h1c5.5,0,10,4.5,10,10v20.8C156.7,134.4,152.2,138.9,146.7,138.9z"/>
	<path class="earbud3" d="M184.2,124.9L184.2,124.9c-1.1,0-2-0.9-2-2v-7c0-1.1,0.9-2,2-2l0,0c1.1,0,2,0.9,2,2v7C186.2,124,185.3,124.9,184.2,124.9z"/>
</g>
<path class="earbud2" d="M89,78.3c0,2.1-1,137.9-1,137.9s-3.2,2.5-12,2.5s-12.3-2.5-12.3-2.5l-1-132.3H51.3v-74C72.2,9.9,89,48.3,89,78.3z"/>
<g>
	<ellipse class="earbud2" cx="37.7" cy="48.2" rx="37.7" ry="48.2"/>
	<path class="earbud3" d="M42.4,68.9h1c5.5,0,10-4.5,10-10V38.1c0-5.5-4.5-10-10-10h-1c-5.5,0-10,4.5-10,10v20.8C32.4,64.4,36.9,68.9,42.4,68.9z"/>
	<path class="earbud3" d="M4.9,54.9L4.9,54.9c1.1,0,2-0.9,2-2v-7c0-1.1-0.9-2-2-2h0c-1.1,0-2,0.9-2,2v7C2.9,54,3.8,54.9,4.9,54.9z"/>
</g>
</svg>
