<svg version="1.1" class="icon-play" xmlns="http://www.w3.org/2000/svg" xmlns:xlink="http://www.w3.org/1999/xlink" x="0px" y="0px" width="100.7px" height="87.2px" viewBox="0 0 100.7 87.2" style="enable-background:new 0 0 100.7 87.2;" xml:space="preserve">
<path d="M17.1,73.4c2.1-19.5,2.9-32.7,0-55.3c0,0,0.1,0.1,0,0c12.5,4.6,42,15.3,42,15.3s6.2,2.3,14.1,5.2c1,0.4,2,0.7,3,1.1c0.2,0.1,0,0,0.1,0l-0.1,0c-0.1,0,0,0,0,0c-1.9,1.2-3.7,2.4-5.2,3.4c-3,1.9-5.6,3.6-8,5c-4.7,2.9-8.2,5-10.6,6.5c-9.7,5.9-17,10.9-23.7,16C22,75.8,15.9,81.1,8.2,87.2c9.7-1.7,17.7-3.9,25.8-6.9c8.1-3,16.3-7,26.1-12.9c2.4-1.5,6-3.6,10.8-6.6c2.4-1.5,5.1-3.2,8.1-5.1c1.6-1,3.2-2.1,4.9-3.2c1.5-1,3-2,4.6-3.1c4.5-3,10-6.1,11-12c0.4-2.5-3.7-5.7-5.6-6.9c-2-1.2-4.3-1.6-6.4-2.6c-3.2-1.2-6.3-2.3-9.3-3.4c-7.9-2.9-14.2-5.2-14.2-5.2c-12.5-4.6-25-9.2-37.4-13.8C22,4,17.3,1.6,12.5,0.5C9.2-0.3,5.3,0,3.1,2.6c-3.9,4.5-1.5,12.3-0.8,17.5C5.5,42.6,9.8,55.1,17.1,73.4z"/>
</svg>
