<?xml version="1.0" encoding="utf-8"?>
<svg version="1.1" class="speaker" xmlns="http://www.w3.org/2000/svg" xmlns:xlink="http://www.w3.org/1999/xlink" x="0px" y="0px" width="98.1px" height="87.2px" viewBox="0 0 98.1 87.2" style="enable-background:new 0 0 98.1 87.2;" xml:space="preserve">
<path d="M4.1,35.7C2.9,41.2,1.8,46.6,1,52.1c-0.6,4.2-2,10.1,1.3,13.6c2.2,2.3,5.7,2.6,8.8,2.6c3.7,0,7.5-0.4,11.2-1c1.2-0.2,2.5-0.5,3.7-0.3c1.8,0.3,3,1.9,4.3,3.1c1.7,1.6,3.4,3.1,5.1,4.6c2.5,2.2,5,4.5,7.6,6.7c2,1.7,4.5,4.1,6.6,5.4c1.4-6.3,1-13.1,1.4-19.5c0.1-2.2,0.2-4.9,0.2-5.4c0-1.9,0-3,0-3C50.8,39,48.8,19.6,46.8,0c-5.1,6.8-6.9,9.1-8.2,10.9c-2.8,3.7-5.4,7.5-7.8,11.5c-1.2,2-2.3,4.1-3.4,6.2c-0.8,1.6-1.2,3.9-3,4.6c-0.9,0.4-2,0.4-3,0.5c-1.9,0.1-3.9,0.7-5.8,1.2c-1.9,0.4-3.8,0.9-5.7,1.4c-1.4,0.3-4.4,1.8-5.7,1.5c7.5,1.8,13.9,3.1,20.6,4c2.4,0.3,4.9,0.4,7-1c2.6-1.7,3.5-7.4,6.5-8.1c0.8,3.2,0.6,7.1,0.8,10.4c0,6,2.4,13.1,0.4,19c-2.9-0.6-5-4.7-7.7-6.1c-2.4-1.2-5.3-1.2-8-0.8c-4.5,0.7-9,1.4-13.5,2.2c-0.2,0-0.4,0.1-0.6,0c-0.2-0.1-0.3-0.3-0.3-0.5c-1-3.3-1.4-6.9-2.2-10.3c-0.4-1.8-0.9-3.6-1.4-5.4C5.3,39.8,3.8,37,4.1,35.7z"/>
<path d="M58.1,18.8c-0.7,1.5,1,6.3,1.8,7.7c0.9,1.6,2,3.1,3,4.7C65.1,35,66.1,39.5,66,44c-0.1,4.4-1.1,8.8-2.5,13c-0.9,2.5-2.6,5.6-2.6,8.4c0,2.3,1.6,4.9,2.6,6.9c4.6-0.9,7.3-1.9,8.7-5.1c3.3-7.3,5.5-15.4,5.5-23.4c0-7.6-2.1-15.2-6.5-21.4c-1.5-2.1-3.4-4.1-5.9-4.8C63.8,17.1,59,17,58.1,18.8z"/>
<path d="M83.1,20.8c-0.2,0.3-0.3,0.7-0.4,1.1c-0.1,1.9,0.3,3.9,1.2,5.6c0.8,1.5,1.9,2.8,2.6,4.2c1.4,2.6,1.7,5.6,1.7,8.5c0.1,5.1-0.6,10.2-2,15.1c-0.8,2.6-1.7,5.2-2.1,7.9c-0.3,2.4-0.3,8,2.9,7.5c2.7-0.4,5.3-2.2,6.4-4.7c4-9.7,5.7-21.3,4.1-31.6c-0.4-2.8-1.1-5.7-2.5-8.2c-1.2-2.2-3.2-4.4-5.5-5.4C87.9,20,84.3,19,83.1,20.8z"/>
</svg>
