<svg class="search" version="1.1" xmlns="http://www.w3.org/2000/svg" xmlns:xlink="http://www.w3.org/1999/xlink" x="0px" y="0px" viewBox="0 0 200 200" style="enable-background:new 0 0 200 200;" xml:space="preserve">
<g>
	<path d="M200,183.3L183.3,200l-64.4-64.5C105.7,145.2,91.1,150,75,150c-13.5,0-26.1-3.3-37.6-10c-11.5-6.7-20.7-15.8-27.3-27.3S0,88.5,0,75s3.3-26.1,10-37.6S25.8,16.7,37.4,10S61.5,0,75,0s26.1,3.3,37.6,10s20.6,15.8,27.3,27.3c6.7,11.5,10,24.1,10,37.6c0,16.1-4.8,30.7-14.5,43.9L200,183.3z M24.5,45.7c-5.2,8.9-7.8,18.7-7.8,29.3s2.6,20.4,7.8,29.3s12.3,16,21.2,21.2s18.7,7.8,29.3,7.8s20.4-2.6,29.3-7.8s16-12.3,21.2-21.2c5.2-8.9,7.8-18.7,7.8-29.3s-2.6-20.4-7.8-29.3c-5.2-8.9-12.3-16-21.2-21.2S85.6,16.7,75,16.7s-20.4,2.6-29.3,7.8S29.7,36.8,24.5,45.7z"/>
</g>
</svg>
