<?xml version="1.0" encoding="utf-8"?>
<!-- Generator: Adobe Illustrator 19.0.1, SVG Export Plug-In . SVG Version: 6.00 Build 0)  -->
<svg version="1.1" id="Layer_1" xmlns="http://www.w3.org/2000/svg" xmlns:xlink="http://www.w3.org/1999/xlink" x="0px" y="0px"
	 width="35.7px" height="413.7px" viewBox="0 0 35.7 413.7" style="enable-background:new 0 0 35.7 413.7;" xml:space="preserve">
<style type="text/css">
	.sprite-black{fill:#222222;}
	.sprite-white{fill:#ffffff;}
</style>
<g>
	<path class="sprite-black" d="M9.1,194.5c2.1-0.2,4.2-0.4,6.3-0.6c2.2-0.2,3.1-0.9,4.3-2.7c-1.3-1.6-2.5-2.4-4.6-2.2c-1,0.1-2.1,0.4-3.1,0.2
		c-0.7-0.1,1.4-4.1,1.5-4.5c0.7-1.9,0.2-3-0.9-4.6c-0.2-0.3-2.7,1.2-2.9,1.5c-0.9,1-1.2,2.7-1.7,4c-1.3,3-3,6-4.1,9.1
		C3.8,194.8,8.8,194.5,9.1,194.5z"/>
	<path class="sprite-black" d="M29.4,188.3c-4-3.7-10.7-5.1-15.1-1.2c3.6-0.9,7.2,0.8,10,3c2.1,1.6,3.9,3.6,4.8,6c1.2,3.3,0.6,7.2-1.5,10
		c-2.7,3.6-7.3,5.2-11.7,4.9c-1.6-0.1-3.1-0.5-4.3-0.9c-1.3-0.4-2.4-0.9-3.5-1.6c-2.3-1.3-4.4-2.9-7-4.9c1.4,2.9,2.6,5.5,4.8,7.7
		c1.1,1.1,2.4,2.2,4,2.9c1.6,0.8,3.5,1.4,5.7,1.5c8.4,0.8,17.2-4.6,18.9-13.1C35.3,197.6,33.3,191.9,29.4,188.3z"/>
</g>
<path class="sprite-white" d="M0,72h12.5v30H0V72z M17.5,72H30v30H17.5V72z"/>
<g>
	<path class="sprite-white" d="M35.7,129.6v3.2h-3.2l-4-4l-4,4h-3.2v-3.2l4-4l-4-4v-3.2h3.2l4,4l4-4h3.2v3.2l-4,4L35.7,129.6z"/>
	<path class="sprite-white" d="M15.5,142.3c-0.3,0-0.6-0.1-0.8-0.3l-9.2-9.2H1.2c-0.7,0-1.2-0.5-1.2-1.2v-11.9c0-0.7,0.5-1.2,1.2-1.2h4.3l9.2-9.2
		c0.3-0.3,0.9-0.4,1.3-0.3s0.7,0.6,0.7,1.1v30.9c0,0.5-0.3,0.9-0.7,1.1C15.8,142.2,15.6,142.3,15.5,142.3z"/>
</g>
<g>
	<path class="sprite-white" d="M26.7,173.4c-0.5,0-0.9-0.2-1.3-0.5c-0.7-0.7-0.7-1.8,0-2.5c4.9-4.9,4.9-12.8,0-17.6c-0.7-0.7-0.7-1.8,0-2.5s1.8-0.7,2.5,0
		c3,3,4.7,7,4.7,11.3c0,4.3-1.7,8.3-4.7,11.3C27.6,173.3,27.1,173.4,26.7,173.4L26.7,173.4L26.7,173.4z M20.4,170.1
		c-0.5,0-0.9-0.2-1.3-0.5c-0.7-0.7-0.7-1.8,0-2.5c3-3,3-7.9,0-10.9c-0.7-0.7-0.7-1.8,0-2.5s1.8-0.7,2.5,0c4.4,4.4,4.4,11.5,0,15.9
		C21.3,169.9,20.8,170.1,20.4,170.1L20.4,170.1z"/>
	<path class="sprite-white" d="M15.4,178.2c-0.3,0-0.6-0.1-0.8-0.3l-9.1-9.1H1.2c-0.7,0-1.2-0.5-1.2-1.2v-11.9c0-0.7,0.5-1.2,1.2-1.2h4.3l9.1-9.1
		c0.3-0.3,0.8-0.4,1.3-0.3c0.4,0.2,0.7,0.6,0.7,1.1V177c0,0.5-0.3,0.9-0.7,1.1C15.7,178.2,15.6,178.2,15.4,178.2z"/>
</g>
<path class="sprite-white" d="M0,35.7l30.3,18.2L0,72V35.7z"/>
<path class="sprite-black" d="M34.6,30.4l-8.4-7.2c-0.9-0.8-1.8-1.1-2.6-1.1c2-2.3,3.2-5.4,3.2-8.7C26.8,6,20.8,0,13.4,0S0,6,0,13.4s6,13.4,13.4,13.4
	c3.3,0,6.3-1.2,8.7-3.2c0,0.8,0.3,1.7,1.1,2.6l7.2,8.4c1.2,1.4,3.2,1.5,4.5,0.3C36,33.6,35.9,31.6,34.6,30.4L34.6,30.4z M13.4,22.3
	c-4.9,0-8.9-4-8.9-8.9s4-8.9,8.9-8.9s8.9,4,8.9,8.9S18.3,22.3,13.4,22.3z"/>
<path class="sprite-black" d="M0,220h35.5v7.6H0V220z M0,230.1h35.5v7.6H0V230.1z M0,240.3h35.5v7.6H0V240.3z"/>
<path class="sprite-black" d="M16.2,262.8c0.6,0,0.8,0.1,1-0.4c0.2-0.6,0-1.6,0-2.2c0-0.7,0-1.5,0-2.2c0-0.4,0.2-1.8,0-2.1
	c-0.4-0.5-3,0.1-3.6,0.2c-4,0.7-7.5,2.6-10,5.8c-2.2,2.9-3.7,6.5-3.5,10.2c0.1,1.2,0.3,2.5,0.8,3.6c2.6,6.6,12.3,7.1,15.5,0.7
	c1.7-3.3,1-7.8-2.2-10c-1.6-1.1-3.5-1.4-5.4-1c0.9,0.2,1.7,0.6,2.3,1.1c0.6,0.4,1.2,1,1.6,1.5c2.8,3.5,1.6,9.5-3.3,10
	c-3.2,0.4-5.8-2-6.2-5.1c-0.4-2.7,0.4-5.8,1.9-8.1c0.9-1.4,2.2-2.8,3.7-3.9c1.7-1.1,3.6-1.9,5.6-2.1c0,0.4,0,0.8,0,1.1
	c-2.8,0.4-5.3,2.2-6.6,4.7c-0.3,0.5-0.1,0.8,0.2,0.8c0,0,0,0,0.1,0.1c0,0,0.1,0,0.1-0.1c0.2,0,0.4-0.1,0.7-0.2
	c-0.1,0-0.2-0.1-0.4-0.1c1.8-1.3,4-2.2,6.2-2.4C15,262.8,15.6,262.8,16.2,262.8z"/>
<path class="sprite-black" d="M34.6,262.8c0.6,0,0.8,0.1,1-0.4c0.2-0.6,0-1.6,0-2.2c0-0.7,0-1.5,0-2.2c0-0.4,0.2-1.8,0-2.1
	c-0.4-0.5-3,0.1-3.6,0.2c-4,0.7-7.5,2.6-10,5.8c-2.2,2.9-3.7,6.5-3.5,10.2c0.1,1.2,0.3,2.5,0.8,3.6c2.6,6.6,12.3,7.1,15.5,0.7
	c1.7-3.3,1-7.8-2.2-10c-1.6-1.1-3.5-1.4-5.4-1c0.9,0.2,1.7,0.6,2.3,1.1c0.6,0.4,1.2,1,1.6,1.5c2.8,3.5,1.6,9.5-3.3,10
	c-3.2,0.4-5.8-2-6.2-5.1c-0.4-2.7,0.4-5.8,1.9-8.1c0.9-1.4,2.2-2.8,3.7-3.9c1.7-1.1,3.6-1.9,5.6-2.1c0,0.4,0,0.8,0,1.1
	c-2.8,0.4-5.3,2.2-6.6,4.7c-0.3,0.5-0.1,0.8,0.2,0.8c0,0,0,0,0.1,0.1c0,0,0.1,0,0.1-0.1c0.2,0,0.4-0.1,0.7-0.2
	c-0.1,0-0.2-0.1-0.4-0.1c1.8-1.3,4-2.2,6.2-2.4C33.4,262.8,34,262.8,34.6,262.8z"/>
</svg>
