<?xml version="1.0" encoding="utf-8"?>
<!-- Generator: Adobe Illustrator 19.0.1, SVG Export Plug-In . SVG Version: 6.00 Build 0)  -->
<svg version="1.1" class="linked-paperclips" xmlns="http://www.w3.org/2000/svg" xmlns:xlink="http://www.w3.org/1999/xlink" x="0px" y="0px" width="868.5px" height="417.2px" viewBox="0 0 868.5 417.2" style="enable-background:new 0 0 868.5 417.2;" xml:space="preserve">
<path class="clip1" d="M416.1,59.1c8.4-11.4,20.3-19.1,33.6-21.7c15-2.8,30.3,1.1,44.3,11.3l344.8,251.8c16.6,12.2,26.7,27.9,29.1,45.5c2.1,15.7-2,31.7-11.7,45c-9.8,13.5-24.1,22.4-40,25.1c-17.9,3.1-36.4-1.9-53.6-14.4l-238-173.8l7.7-10.5l238,173.8c21.9,16,54.8,20.3,75.4-7.9c20.2-27.7,6.6-56.9-14.6-72.4L486.3,59.3c-11.1-8.1-22.9-11.2-34.2-9.1c-10,1.9-19.1,7.8-25.5,16.6c-11.7,16-13.3,41.3,10.8,59L680.1,303c15,10.9,37.1,14.4,50.4-3.7c5-6.8,6.9-15,5.4-23.2c-1.7-9.6-8-18.6-18.1-26L580,149.5l7.7-10.5l137.8,100.6c12.9,9.4,20.9,21.2,23.3,34.2c2.1,11.7-0.6,23.5-7.7,33.2c-13.4,18.3-41.2,26.4-68.5,6.5L429.7,136.3c-17.6-12.9-22.8-28.1-24.1-38.6C404,84.2,407.7,70.6,416.1,59.1z"/>
<g>
	<path class="clip2" d="M332.7,114.2c-7.7-9.2-18.5-14.7-30.4-15.4c-13.1-0.8-26.5,4.1-38.8,14.4L132.9,222.9l8.4,10l130.6-109.7c9.6-8.1,19.8-12,29.6-11.4c8.3,0.5,15.9,4.4,21.3,10.8c14.4,17.2,5.7,37.9-8.5,49.8L84.1,365.6C61.2,384.9,37,377.2,24.2,362c-7-8.3-10.5-18.5-10-28.7c0.6-11.5,6.5-22.3,17-31.1l327-274.5C378.3,10.8,410,4.6,432,30.9c2.7,3.3,5,6.6,6.7,10c3.5-1.5,7.1-2.7,10.9-3.4c0.5-0.1,1.1-0.2,1.6-0.3c-2.4-5.2-5.5-10.1-9.3-14.7C431.4,9.9,416.8,2,401,0.3c-17.7-1.9-35.4,4.1-51.2,17.4l-327,274.5C9.6,303.5,2.1,317.4,1.3,332.6c-0.7,13.5,3.9,26.9,13,37.8c9.1,10.8,21.5,17.7,34.9,19.4c10.5,1.3,26.6-0.1,43.3-14.2l230.2-193.3C348.5,160.6,347.3,131.6,332.7,114.2z"/>
	<path class="clip2" d="M452.1,50.2c-3.1,0.6-6.1,1.6-8.9,2.9c4.1,20.2-6.4,40.2-21.5,52.9L195.9,295.5l8.4,10l225.6-189.5c16.2-13.6,25.5-30.4,26.8-48.5c0.4-6,0-11.9-1.3-17.7C454.3,49.9,453.2,50,452.1,50.2z"/>
</g>
</svg>
