<?xml version="1.0" encoding="utf-8"?>
<!-- Generator: Adobe Illustrator 19.0.1, SVG Export Plug-In . SVG Version: 6.00 Build 0)  -->
<svg version="1.1" id="Layer_1" xmlns="http://www.w3.org/2000/svg" xmlns:xlink="http://www.w3.org/1999/xlink" x="0px" y="0px"
	 width="31.1px" height="54.8px" viewBox="0 0 31.1 54.8" style="enable-background:new 0 0 31.1 54.8;" xml:space="preserve" aria-hidden="true">
<path class="shaving0" d="M17.8,0l8.1,13l-2.5,1.5l-5-3.7l4.9,5.7l-3,1.4c0,0-1.7-1.2-2.1-0.2c-0.1,0.2,0.4,2,0.4,2.2
	c-0.2,1.4,1.1,3.6,1.8,4.2c0.8,0.7,4.7,0.8,4.7,0.8l0.1,1.4l3.3,0.9l-1,2.1l1,1.6c0,0-2.4,2.5-1.5,2.2s1.8,2.2,1.8,2.2l2.6,0.4
	l-4.3,15.8l-3.6,3l0.3-4l-4.6,0.6l-1.1-3.8L15,48l-0.4-3.8l-4.5-0.6l1.7-5.1l-4.5-0.9l0.8-4.8L4.3,32l1.8-3.5l-3.9-2L4,23.7
	l-2.2-2.5l2.8-2.8l-2.3-3.6l4.8-0.8L5.4,9.6l3.9-0.5L9.2,4.3l4.6-0.2l-0.2-3.4L17.8,0z"/>
<path class="shaving1" d="M27.2,51.6l-2.4,0l0.1-2.6c0-0.2-0.1-0.3-0.2-0.4c-0.1-0.1-0.3-0.1-0.5,0l-3.9,1.8l-0.4-3.6
	c0-0.1-0.1-0.3-0.2-0.3c-0.1-0.1-0.3-0.1-0.4-0.1l-2.9,0.6l0.1-3.6c0-0.1,0-0.3-0.1-0.4c-0.1-0.1-0.2-0.1-0.4-0.1h-3.3l0.7-4.8
	c0-0.3-0.1-0.5-0.4-0.6l-4-0.8l0.8-3.8c0-0.2-0.1-0.5-0.3-0.6L6.8,31l0.7-2.9c0.1-0.2-0.1-0.5-0.3-0.6L4.1,26l1.2-1.8
	c0.1-0.2,0.1-0.4,0-0.6l-2-2.6l2.8-1.9c0.1-0.1,0.2-0.2,0.2-0.3c0-0.1,0-0.3-0.1-0.4l-2.2-3l3.8-0.4c0.1,0,0.3-0.1,0.4-0.2
	c0.1-0.1,0.1-0.3,0.1-0.4l-1.2-4l3.2-0.1c0.1,0,0.3-0.1,0.4-0.2c0.1-0.1,0.1-0.2,0.1-0.4l-0.4-4.5h4.2c0.1,0,0.3-0.1,0.4-0.2
	c0.1-0.1,0.1-0.2,0.1-0.4l-0.1-3.1L17.8,0l-5.3,0c-0.1,0-0.3,0.1-0.4,0.2s-0.1,0.2-0.1,0.4l0.3,2.4L8.6,3.3c-0.3,0-0.5,0.2-0.5,0.5
	v4L4.5,8.2c-0.2,0-0.3,0.1-0.4,0.2C4,8.6,4,8.8,4,8.9l1.5,4.2L1.3,14c-0.2,0-0.3,0.2-0.4,0.3c-0.1,0.2,0,0.3,0.1,0.5l2.6,3.4l-3,2.6
	c-0.1,0.1-0.2,0.2-0.2,0.4c0,0.1,0.1,0.3,0.2,0.4l2.2,2.1l-2.6,3C0,26.7,0,26.9,0,27s0.2,0.3,0.3,0.3l4.4,1.8l-2.4,3.2
	c-0.1,0.1-0.1,0.3-0.1,0.5c0.1,0.2,0.2,0.3,0.4,0.3l4.1,0.7L4,38.5c-0.1,0.2-0.1,0.3,0,0.5c0.1,0.2,0.3,0.3,0.4,0.3h6.2
	c-2.6,6-2.4,5.8-2.1,6.3c0.1,0.1,3.2-0.1,5.2,0l0.1,3.3c0,0.3,0.2,0.5,0.5,0.5h3.4v3.8c0,0.2,0.1,0.3,0.2,0.4s0.3,0.1,0.5,0.1
	l4.3-1.7l0.5,2.3c0,0.2,0.1,0.3,0.3,0.4c0.1,0,0.1,0,0.2,0c0.1,0,0.2,0,0.3-0.1L27.2,51.6z"/>
<polygon class="shaving2" points="23.6,9.3 28,16.4 26.9,16.8 23.1,10.3 "/>
<polygon class="shaving2" points="24.1,13.6 25.5,16.8 26.5,16.2 25.3,12.8 "/>
<polygon class="shaving2" points="22.8,16.8 25.3,18.1 24.1,18.8 21.7,17.3 23.5,19.4 18.3,17.8 23.1,19.9 18.3,19 17.8,17.5 21.3,16.8
	22.4,15.5 "/>
<polygon class="shaving2" points="24.1,25.6 25.5,25.4 26.5,26.8 28,26.8 30.9,26.1 29.6,28.1 28,29.2 29,30.7 29.3,31.6 27.5,33
	29.2,34.3 29.3,35.6 31.1,35.9 28.3,35.9 28,34.7 25.9,33.7 28,31.1 26.5,29.7 28,27.9 24.9,28.7 25.3,26.5 "/>
</svg>
