<?xml version="1.0" encoding="utf-8"?>
<svg class="photo-corner" version="1.1" id="Layer_1" xmlns="http://www.w3.org/2000/svg" xmlns:xlink="http://www.w3.org/1999/xlink" x="0px" y="0px"
	 width="70.7px" height="70.7px" viewBox="0 0 70.7 70.7" style="enable-background:new 0 0 70.7 70.7;" xml:space="preserve" aria-hidden="true">
<polygon class="photo-corner0" points="26,26 44.7,26 70.7,0 21.7,0 0,0 0,21.7 0,70.7 26,44.7 "/>
<polygon class="photo-corner1" points="33.4,4.8 29.6,4.8 5.2,4.8 4.2,4.8 4.2,5.8 4.2,29.3 4.2,33.1 4.2,59.2 5.2,58.2 5.2,34 5.2,30.2
	5.2,5.8 28.7,5.8 32.4,5.8 58.9,5.8 59.9,4.8 "/>
<polygon class="photo-corner1" points="21.2,20.8 20.2,20.8 20.2,21.8 20.2,44.2 21.2,43.2 21.2,21.8 42.9,21.8 43.9,20.8 "/>
</svg>
